<svg width="122" height="204" viewBox="0 0 122 204" fill="none" xmlns="http://www.w3.org/2000/svg">
<path opacity="0.75" d="M42.7363 83.583H37.7363V88.583V90.6631V95.6631V105.185V110.185V112.021V117.021H42.7363H58.1172C62.6797 117.021 66.2352 117.91 68.9946 119.443C71.5983 120.89 73.7202 123.188 75.2909 126.656L75.307 126.692L75.3235 126.727C76.9407 130.155 77.8975 134.892 77.8975 141.195C77.8975 146.722 77.0359 151.12 75.5172 154.554L75.5008 154.591L75.485 154.628C74.0336 158.059 72.0372 160.43 69.5736 162.014L69.5504 162.029L69.5274 162.044C67.1322 163.621 64.1368 164.516 60.3145 164.516C56.925 164.516 54.1545 163.675 51.8188 162.115C49.4704 160.413 47.5377 158.026 46.077 154.772C44.6257 151.54 43.8301 147.662 43.8301 143.026V138.026H38.8301H10.5098H5.50977V143.026C5.50977 151.919 6.89075 159.952 9.79017 167.019L9.80495 167.055L9.82029 167.091C12.7543 173.937 16.7615 179.781 21.878 184.532L21.9119 184.564L21.9463 184.594C27.0746 189.183 32.9286 192.647 39.4718 194.978C45.9752 197.294 52.8109 198.441 59.9482 198.441C67.792 198.441 75.1346 197.221 81.9274 194.72C88.826 192.21 94.8826 188.467 100.041 183.49L100.057 183.474L100.073 183.458C105.233 178.39 109.224 172.31 112.068 165.289L112.072 165.279L112.076 165.269C114.956 158.07 116.34 150.018 116.34 141.195C116.34 134.619 115.418 128.334 113.548 122.366C111.628 116.242 108.511 110.779 104.218 106.019C101.918 103.376 99.2396 101.083 96.2137 99.1261C98.0272 97.6693 99.7082 96.0883 101.252 94.3808C105.562 89.6222 108.832 84.3235 111.017 78.4978C113.162 72.7759 114.265 67.0148 114.265 61.2393C114.265 49.5592 112.034 39.3844 107.28 30.9647C102.667 22.6518 96.184 16.2897 87.8878 12.0023C79.7379 7.74851 70.4178 5.70215 60.0703 5.70215C49.9324 5.70215 40.7139 8.00233 32.5522 12.716C24.528 17.3159 18.1931 23.7017 13.6059 31.7967C8.97978 39.9605 6.73047 49.211 6.73047 59.4082V64.4082H11.7305H40.1729H45.1729V59.4082C45.1729 54.9278 45.9303 51.3357 47.2573 48.4824C48.6959 45.4829 50.5428 43.4109 52.7305 42.0292L52.7698 42.0044L52.8086 41.9788C55.0389 40.5116 57.5723 39.75 60.5586 39.75C64.3413 39.75 66.9837 40.6209 68.8616 41.9772L68.8879 41.9962L68.9143 42.0148C70.9689 43.4585 72.6399 45.6191 73.8096 48.8032L73.825 48.8451L73.8411 48.8867C75.1088 52.1561 75.8223 56.2728 75.8223 61.3613C75.8223 66.2355 75.0831 70.3029 73.7385 73.6645C72.4568 76.8688 70.5396 79.2743 67.9822 81.0432C65.6876 82.6065 62.4796 83.583 57.9951 83.583H42.7363Z" fill="#ED6A5A" fill-opacity="0.1" stroke="#ED6A5A" stroke-width="10"/>
</svg>
