<svg width="196" height="345" viewBox="0 0 196 345" fill="none" xmlns="http://www.w3.org/2000/svg">
<path d="M190.365 292.373V287.373H185.365H81.357L128.598 219.948C136.269 209.777 143.249 199.812 149.534 190.054C155.996 180.073 161.57 170.142 166.246 160.259L166.253 160.246L166.259 160.233C170.954 150.161 174.619 140.059 177.243 129.93C179.89 119.708 181.215 109.326 181.215 98.7939C181.215 80.2152 178.006 63.8592 171.403 49.8732C164.902 35.8341 155.22 24.8821 142.389 17.1698C129.626 9.42264 114.259 5.68359 96.5308 5.68359C77.3606 5.68359 60.7347 10.5305 46.9226 20.4557C33.2923 30.1042 22.9533 43.1522 15.8851 59.4428C8.84633 75.5191 5.36523 93.2012 5.36523 112.417V117.417H10.3652H55.545H60.545V112.417C60.545 101.41 61.9538 91.7687 64.6817 83.4296C67.3742 75.1988 71.3615 69.1055 76.4757 64.8412L76.4832 64.8349L76.4907 64.8286C81.571 60.5589 87.9471 58.3105 95.9589 58.3105C102.404 58.3105 107.582 60.1683 111.799 63.7245L111.821 63.7436L111.844 63.7624C116.365 67.4848 119.895 72.6722 122.313 79.5732C124.758 86.5513 126.035 94.7623 126.035 104.287C126.035 111.143 125.084 118.099 123.161 125.166C121.253 132.175 117.926 140.242 113.088 149.396C108.256 158.391 101.453 169.266 92.634 182.047L11.0726 295.385L10.131 296.694V298.306V335V340H15.131H185.365H190.365V335V292.373Z" stroke="#ED6A5A" stroke-width="10"/>
</svg>
