<svg width="125" height="201" viewBox="0 0 125 201" fill="none" xmlns="http://www.w3.org/2000/svg">
<path opacity="0.75" d="M119.98 166.25V161.25H114.98H58.2361L82.9117 127.825C87.6009 122.143 91.8534 116.526 95.665 110.975C99.5258 105.351 102.86 99.7416 105.659 94.1452C108.481 88.5007 110.678 82.7832 112.234 76.9949C113.894 71.048 114.731 65.0699 114.731 59.0723C114.731 48.3754 112.748 38.8601 108.579 30.6938C104.468 22.4818 98.3519 16.0917 90.324 11.6189C82.3253 7.11686 72.7673 5 61.8799 5C50.029 5 39.6281 7.75237 30.9337 13.5132C22.4084 19.0811 15.9068 26.6365 11.4593 36.0651L11.4549 36.0745L11.4505 36.0838C7.12286 45.3574 5 55.5706 5 66.6406V71.6406H10H38.4424H43.4424V66.6406C43.4424 60.7099 44.2039 55.6461 45.6272 51.3761L45.6311 51.3644L45.6349 51.3527C47.0199 47.1285 49.0591 44.1399 51.5981 42.0845L51.6258 42.0621L51.6531 42.0393C54.0097 40.0755 57.1627 38.9258 61.5137 38.9258C64.7126 38.9258 67.1236 39.8196 69.0549 41.429L69.0869 41.4556L69.1192 41.4817C71.1891 43.1491 72.9058 45.5956 74.1227 49.1111L74.1367 49.1515L74.1513 49.1916C75.4567 52.7642 76.167 57.0465 76.167 62.124C76.167 65.6305 75.6666 69.2543 74.6364 73.0075C73.6377 76.6456 71.7974 80.9386 68.9966 85.9178L68.9901 85.9294L68.9837 85.9409C66.288 90.7933 62.3686 96.6895 57.1643 103.657L8.72557 166.493L7.68555 167.842V169.546V190.176V195.176H12.6855H114.98H119.98V190.176V166.25Z" fill="#ED6A5A" fill-opacity="0.1" stroke="#ED6A5A" stroke-width="10"/>
</svg>
