<svg width="196" height="350" viewBox="0 0 196 350" fill="none" xmlns="http://www.w3.org/2000/svg">
<path d="M67.2817 145.649H62.2817V150.649V158.394V163.394V180.532V185.532V192.617V197.617H67.2817H93.5811C102.405 197.617 109.621 199.385 115.439 202.681L115.493 202.711L115.547 202.74C121.341 205.836 125.828 210.679 128.98 217.552L129.002 217.601L129.025 217.649C132.269 224.343 134.061 233.548 134.061 245.571C134.061 255.915 132.488 264.512 129.523 271.506C126.571 278.322 122.435 283.272 117.19 286.62C111.924 289.982 105.51 291.768 97.7337 291.768C90.7384 291.768 84.7444 289.97 79.5745 286.474C74.3197 282.919 70.141 278.006 67.0642 271.576C64.1345 265.18 62.5924 257.578 62.5924 248.647V243.647H57.5924H10.9258H5.92578V248.647C5.92578 264.237 8.30892 278.152 13.2104 290.29L13.224 290.324L13.238 290.357C18.2241 302.208 24.9941 312.251 33.589 320.393L33.6066 320.409L33.6243 320.426C42.1478 328.344 51.8759 334.333 62.7767 338.37L62.7864 338.374L62.796 338.377C73.773 342.392 85.2309 344.395 97.1405 344.395C110.34 344.395 122.618 342.255 133.923 337.914C145.381 333.565 155.408 327.101 163.956 318.537L163.972 318.521L163.988 318.505C172.542 309.779 179.158 299.302 183.865 287.148C188.611 274.895 190.926 261.008 190.926 245.571C190.926 234.123 189.346 223.226 186.158 212.904C182.925 202.288 177.707 192.872 170.508 184.711C165.447 178.871 159.358 173.991 152.294 170.048C157.146 166.61 161.503 162.714 165.352 158.353C172.608 150.135 178.018 141.02 181.536 131.024C185.141 121.153 186.971 111.281 186.971 101.431C186.971 80.9364 183.312 63.3809 175.714 48.9977C168.158 34.693 157.515 23.7727 143.814 16.3937C130.311 9.05019 114.701 5.46387 97.1405 5.46387C80.2325 5.46387 64.957 9.4788 51.4547 17.6058C38.029 25.6866 27.4604 36.74 19.7932 50.6814C12.0901 64.6881 8.29866 80.5492 8.29866 98.1348V103.135H13.2987H60.1631H65.1631V98.1348C65.1631 89.656 66.7002 82.5262 69.5981 76.6011C72.5356 70.5952 76.4328 66.1319 81.2444 63.0176C86.2089 59.8888 91.7294 58.3105 97.9314 58.3105C105.585 58.3105 111.394 60.0967 115.741 63.2782L115.8 63.3213L115.86 63.3626C120.451 66.5203 124.027 71.1439 126.487 77.5219C128.976 83.9767 130.304 91.9754 130.304 101.65C130.304 110.635 128.875 118.471 126.13 125.243C123.449 131.71 119.441 136.699 114.1 140.364C109.078 143.756 102.36 145.649 93.5811 145.649H67.2817Z" stroke="#ED6A5A" stroke-width="10"/>
</svg>
